# xmcd
#
# Track frame offsets:
#	180
#	15507
#	36121
#	53824
#	67243
#	83383
#	101300
#	118476
#	136789
#	152310
#
# Disc length: 2363 seconds
#
# Revision: 1
# Processed by: cddbd v1.5PL3 Copyright (c) Steve Scherf et al.
# Submitted via: audiograbber 1.83.01
#
DISCID=7309390a
DTITLE=Cherokee Rose - Borders To Cross Bridges To Burn
DYEAR=1993
DGENRE=Country
TTITLE0=Rodeo Queen
TTITLE1=Borders To Cross, Bridges To Burn
TTITLE2=Goin' To The Poorhouse In A Cadillac
TTITLE3=Find Another Fool
TTITLE4=A Cowboy's Prayer
TTITLE5=The Last Living Cowboy
TTITLE6=He Never Came Back From Mexico
TTITLE7=Love At First Dance
TTITLE8=I'm A Lonesome Fugitive
TTITLE9=The Haunted Jukebox At The Lost Highway Saloon
EXTD=
EXTT0=
EXTT1=
EXTT2=
EXTT3=
EXTT4=
EXTT5=
EXTT6=
EXTT7=
EXTT8=
EXTT9=
PLAYORDER=
